<svg version="1" xmlns="http://www.w3.org/2000/svg" width="417.333" height="417.333" viewBox="0 0 313.000000 313.000000"><path d="M50 79.8v22h9c5 .1 9-.2 9.1-.6.1-.4.3-4.3.5-8.6.3-4.4.6-8.1.8-8.3.1-.2 3.4-.6 7.2-.9 16.7-1.3 22.7-4.2 24.4-11.7.7-3.3.5-4.2-1.8-6.9-4.6-5.4-7.7-6.1-29.4-6.6L50 57.8v22zm30.1-11.2c1.6.9 1 4.2-.8 4.7-8 2.2-11.6 1.3-10.9-2.6.3-1.2.5-2.5.5-2.8.1-.8 9.9-.2 11.2.7zM160.6 79.1c.1 15.3.5 21.3 1.4 21.9 1.3.8 16 .4 16.9-.5.5-.6.7-4 1-14.2.1-3.2.2-3.3 3.9-2.9 7.3.8 8.1 1.7 8.8 10.6.3 3 .9 5.9 1.5 6.5 1 1 16.2 1.6 17.7.6.7-.4.6-2.7-.3-6.5-2.2-9.4-3.3-11.3-7.8-13.4l-4.1-1.9 3.6-1.2c4.9-1.6 8.8-5.4 8.8-8.5 0-1.4-1.2-3.9-2.7-5.6-4.1-4.5-10.8-5.7-31.4-5.9l-17.6-.2.3 21.2zm28.8-13c5.6 2.6 3.2 6.3-4.2 6.3-4.2.1-4.7-.2-5-2.2-.2-1.3-.1-3 .2-3.8.6-1.7 5.5-1.8 9-.3zM119.5 69.1c-10.2 2.3-14.6 8-13.8 17.9.4 5.8 2.7 8.9 8.8 12 4.3 2.1 6.3 2.4 15 2.4s10.6-.3 14.3-2.4c11.6-6.5 11.5-22.3-.3-28-4.6-2.2-18-3.3-24-1.9zm13.6 9.8c.9 9.3 0 14.5-2.7 15.5s-4.4-3.5-4-10.8c.2-5.4.7-7.2 2.2-8.3 1.6-1.2 2-1.1 3.1.4.7.9 1.4 2.4 1.4 3.2zM231.7 69.1c-6 .9-9.5 3.1-10.3 6.5-.9 3.4.8 4.4 6.9 4.2 4.1 0 5-.4 5.8-2.4.4-1.3 1-2.4 1.1-2.5.2 0 2.2-.3 4.6-.6 4.1-.5 4.3-.3 4 1.7-.4 2.6-3.1 4.2-12.7 7.1-10.2 3.1-14.4 7.3-12.5 12.4 1.9 4.9 14.7 7.7 22.8 5 3.5-1.2 5.1-1.3 6.6-.5 2.9 1.6 12.5 2.1 15.6.9 2.4-.9 2.5-1.1 1.1-2.7-1.1-1.2-1.7-4.7-2-12.4-.3-5.8-1-11.5-1.6-12.6-.6-1.1-2.7-2.6-4.7-3.2-4.3-1.5-17.9-1.9-24.7-.9zM244 89c0 2.7-.5 4.2-1.7 4.8-3 1.4-6.3.3-6.3-2.2 0-2.2 4-6.6 6.1-6.6 1.6 0 1.9.7 1.9 4zM154.9 115.4c-.2.2-8.3.7-17.9 1-21 .9-21.8.9-39.5 3.5-15.3 2.3-31.2 6.8-36.6 10.4-13.2 8.9 2.4 18.8 38.5 24.3 2.1.3 4.8.7 6 1 1.1.2 4.8.7 8.1 1 3.3.4 6.5.8 7 .9 11 2.3 16.8 6.7 18 13.6.3 1.8.7 3.5.9 3.6.1.1 4.5-.8 9.7-2.1 5.1-1.3 11.9-2.8 14.9-3.5 3.8-.8 6.7-2.2 9.4-4.7 6.3-5.6 9.5-6.9 20.1-7.9 18.7-1.7 44.9-7.8 51.4-12 16.3-10.3-2.7-21.4-44.4-26-3.3-.4-7.1-.8-8.4-1-1.3-.3-9.9-.7-19-1.1-9.1-.3-16.9-.8-17.2-1-.3-.2-.8-.2-1 0zm-30.4 15.9c4 4 4.3 5.9 1.5 10.4-1.4 2.3-2.9 3.4-5.5 3.9-3.7.7-25.2 0-29-.9-13.1-3.2-15.1-4.3-14.1-8.2 1.2-4.8 12.5-7.8 32.1-8.3l11.5-.4 3.5 3.5zm91.3-1.4c9.6 1.5 15.2 5.4 13.6 9.5-.8 2-7.9 5.4-12.9 6.1-2.2.3-9.4.8-16 1.1-10.9.5-12.3.4-15.2-1.5-7.4-4.7-5.3-14.1 3.7-16.2 3.4-.8 19.4-.2 26.8 1zM160.7 177.1c-4.3 1-8.9 2.1-10.3 2.3-7.4 1.4-11 3.7-8.9 5.8.3.3 4.8-.5 10.1-1.8 5.2-1.3 10.7-2.5 12.2-2.8 4.3-.7 6-1.6 5.8-3.1-.3-2.3-.7-2.3-8.9-.4zM157.4 190c-9.4 2.1-15.4 4.5-15.4 6 0 1.3 3.7.8 13.8-1.7 8.8-2.2 13.4-4.1 12.7-5.3-.8-1.3-1.3-1.2-11.1 1zM152.8 203c-9.6 2.5-10.5 2.9-8.9 3.9 1.1.7 7.6-.4 14.6-2.4.6-.1 2.5-.6 4.3-1 1.7-.4 3.2-1.1 3.2-1.6 0-1.4-5.8-.9-13.2 1.1zM155.5 213.5c-8.5 1.9-12 3.4-10.9 4.5.7.7 2.8.5 6-.5 2.7-.8 5.1-1.5 5.4-1.5 3.4-.5 9-2.4 9-3.1 0-1.2-2.1-1-9.5.6zM159.9 223.4c-.2.3-2.2.7-4.4 1-5 .6-9.1 2.1-10.1 3.7-.7 1.2-.1 1.2 9.1-.6 7.9-1.5 13.3-4.5 8.2-4.5-1.3 0-2.6.2-2.8.4zM154.5 235.7c-3.6.8-7.5 2.5-7.5 3.4 0 .8 2.2.6 10.8-1.3 2.9-.6 5.5-1.5 5.8-2 .5-.8-5.5-.9-9.1-.1zM160.9 245.4c-.2.2-2.4.7-4.9 1.1-5 .7-8 2.1-8 3.5 0 1.3.8 1.3 6.7-.5 2.8-.8 5.6-2.2 6.3-3 1.1-1.3 1-2.2-.1-1.1zM152.3 258.1c-3.8 1.1-4.4 2.9-.9 2.9 3.1 0 8.6-2 8.6-3.1s-3.5-1-7.7.2zM150.6 265.8c-1 1.6 2.6 11.5 3.7 10.2 1.2-1.5 3.6-9.3 3.2-10.1-.8-1.1-6.2-1.2-6.9-.1z"/></svg>